Coordinates
version=1
nRows=9
nColumns=63
inDegrees=yes

Units are S.I. units (second, meters, Newtons, ...)
If the header above contains a line with 'inDegrees', this indicates whether rotational values are in degrees (yes) or radians (no).

endheader
time	pelvis_tilt	pelvis_list	pelvis_rotation	pelvis_tx	pelvis_ty	pelvis_tz	hip_flexion_r	hip_adduction_r	hip_rotation_r	knee_angle_r	knee_angle_r_beta	ankle_angle_r	subtalar_angle_r	mtp_angle_r	hip_flexion_l	hip_adduction_l	hip_rotation_l	knee_angle_l	knee_angle_l_beta	ankle_angle_l	subtalar_angle_l	mtp_angle_l	L5_S1_Flex_Ext	L5_S1_Lat_Bending	L5_S1_axial_rotation	L4_L5_Flex_Ext	L4_L5_Lat_Bending	L4_L5_axial_rotation	L3_L4_Flex_Ext	L3_L4_Lat_Bending	L3_L4_axial_rotation	L2_L3_Flex_Ext	L2_L3_Lat_Bending	L2_L3_axial_rotation	L1_L2_Flex_Ext	L1_L2_Lat_Bending	L1_L2_axial_rotation	L1_T12_Flex_Ext	L1_T12_Lat_Bending	L1_T12_axial_rotation	Abs_r3	Abs_r2	Abs_r1	Abs_t1	Abs_t2	neck_flexion	neck_bending	neck_rotation	arm_flex_r	arm_add_r	arm_rot_r	elbow_flex_r	pro_sup_r	wrist_flex_r	wrist_dev_r	arm_flex_l	arm_add_l	arm_rot_l	elbow_flex_l	pro_sup_l	wrist_flex_l	wrist_dev_l
      1.28813559	     -6.50308631	      5.67551057	    104.71609241	      0.15973838	      0.72300605	      0.78771734	     -1.99768452	     -9.43165492	     -9.33256870	     22.87784722	      0.39929376	     34.11387563	      2.74906097	      0.00000000	     -7.71039236	      6.14388504	      5.75305524	      6.33448399	      0.11055760	     24.84890823	      6.35355626	      0.00000000	     -0.37609119	     -1.37359541	     -2.32232908	     -0.69843895	     -1.82688189	     -2.46747465	     -0.61788022	     -3.33975987	     -2.46747465	     -0.42983462	     -3.33975987	     -2.03203794	     -0.34923828	     -2.80103575	     -1.88689238	     -0.21489851	     -2.12769929	     -1.74174681	     -2.68638176	    -15.53838597	    -12.91609764	      0.00000000	      0.00000000	     10.48807897	      5.73121894	     -6.44086607	    -22.07568916	    -55.06939647	   -102.10480146	     69.63279098	     65.52819014	      9.11670192	     12.00121694	    168.05875594	    -70.52538621	    222.41913493	      0.16269947	      1.21777206	    -69.58571162	    -23.42736519
      1.30508475	     -8.19762747	      6.09766989	    104.45772212	      0.16412578	      0.72328027	      0.78548084	     -2.17882500	    -10.93069106	     -8.35441658	     24.48648577	      0.42736980	     34.89040656	      2.12041994	      0.00000000	     -8.85609626	      7.44755919	      4.64476410	      6.03007392	      0.10524464	     24.69063254	      7.85346160	      0.00000000	     -0.41356943	     -1.63238737	     -2.14141864	     -0.76803978	     -2.17107520	     -2.27525731	     -0.67945321	     -3.96898664	     -2.27525731	     -0.47266850	     -3.96898664	     -1.87374131	     -0.38404057	     -3.32876432	     -1.73990265	     -0.23631357	     -2.52856803	     -1.60606398	     -2.95408505	    -18.46589235	    -11.90992807	      0.00000000	      0.00000000	      9.91191267	      6.40066199	     -6.90535531	    -22.95242386	    -52.80563105	   -105.27251539	     77.04644512	     68.46724207	      7.52901678	     10.46754618	    169.63908145	    -66.62474778	    224.88822221	      0.14057710	      1.01239579	    -69.69006134	    -23.61968560
      1.32203390	     -9.89374508	      6.39285973	    104.16639823	      0.16872065	      0.72326426	      0.78333167	     -2.14261980	    -12.49583252	     -7.45750121	     26.15617359	      0.45651135	     35.76417918	      1.75911491	      0.00000000	     -9.84977890	      8.77248518	      3.32872036	      5.77301368	      0.10075810	     24.48893646	      9.55164078	      0.00000000	     -0.44729812	     -1.90662825	     -1.79532372	     -0.83067734	     -2.53581557	     -1.90753145	     -0.73486608	     -4.63577592	     -1.90753145	     -0.51121702	     -4.63577592	     -1.57090825	     -0.41536104	     -3.88799632	     -1.45870052	     -0.25558615	     -2.95336715	     -1.34649279	     -3.19500575	    -21.56816006	     -9.98505191	      0.00000000	      0.00000000	      9.50828287	      7.58142471	     -8.50341955	    -25.53703187	    -49.99706711	   -109.17370228	     84.05005719	     68.60658117	      3.90515439	      9.24254992	    168.41034041	    -62.26123689	    225.85264961	      0.12114381	      0.90946340	    -69.75134240	    -23.82471478
      1.33898305	    -11.19626584	      6.40117047	    103.79527349	      0.17233715	      0.72277356	      0.78061341	     -1.74186899	    -13.84466906	     -6.82287498	     27.73427950	      0.48405449	     36.60446079	      1.91653359	      0.00000000	    -10.47356598	      9.84427204	      2.07157306	      5.56762436	      0.09717338	     24.29491063	     11.00753597	      0.00000000	     -0.45524097	     -2.13490224	     -1.00253230	     -0.84542800	     -2.83941997	     -1.06519057	     -0.74791538	     -5.19080130	     -1.06519057	     -0.52029490	     -5.19080130	     -0.87721577	     -0.42273676	     -4.35349264	     -0.81455750	     -0.26012469	     -3.30696356	     -0.75189923	     -3.25174069	    -24.15044107	     -5.57578392	      0.00000000	      0.00000000	      8.95802686	      8.75312871	    -12.47495959	    -32.54209351	    -45.72791945	   -116.54678982	     90.05542758	     66.22117664	     -0.01881200	      7.75063275	    161.55589505	    -57.24572002	    220.58255580	      0.10626578	      0.88346942	    -69.78812828	    -24.01798934
      1.35593220	    -12.17020354	      6.27755363	    103.28921475	      0.17501887	      0.72197697	      0.77770225	     -1.08344679	    -14.99191836	     -6.23671464	     29.27645631	      0.51097056	     37.34428746	      2.34560854	      0.00000000	    -10.94725669	     10.73415684	      1.35215967	      5.26405171	      0.09187503	     23.93775445	     11.57066374	      0.00000000	     -0.44430865	     -2.31736174	     -0.09824585	     -0.82512559	     -3.08209112	     -0.10438622	     -0.72995468	     -5.63443334	     -0.10438622	     -0.50780035	     -5.63443334	     -0.08596512	     -0.41258501	     -4.72556407	     -0.07982475	     -0.25387796	     -3.58959334	     -0.07368439	     -3.17365224	    -26.21445950	     -0.54641395	      0.00000000	      0.00000000	      8.42050764	      9.85533086	    -16.93717272	    -39.17132200	    -40.87202184	   -123.53420220	     95.21364478	     63.57425177	     -3.68865928	      6.91209403	    155.23815278	    -51.97992267	    215.10963137	      0.09540840	      0.86727878	    -69.81145091	    -24.14394022
      1.37288136	    -12.87714050	      6.09962542	    102.73758566	      0.17681385	      0.72099262	      0.77482238	     -0.29169085	    -15.96708373	     -5.77025039	     30.79286934	      0.53743696	     37.94276593	      2.98479913	      0.00000000	    -11.31732529	     11.45153675	      1.00996963	      4.91875257	      0.08584843	     23.53615233	     11.64166636	      0.00000000	     -0.42183789	     -2.45914630	      0.81664858	     -0.78339514	     -3.27066458	      0.86768912	     -0.69303747	     -5.97916832	      0.86768912	     -0.48211852	     -5.97916832	      0.71456751	     -0.39171866	     -5.01469114	      0.66352697	     -0.24103817	     -3.80921763	      0.61248644	     -3.01314586	    -27.81835483	      4.54195442	      0.00000000	      0.00000000	      7.94739555	     10.90383045	    -21.29859418	    -44.47051882	    -35.94804819	   -129.79033043	     99.34176208	     61.22156834	     -4.83103456	      6.61191397	    150.00059626	    -46.73380946	    209.31639155	      0.08771921	      0.85065829	    -69.82765956	    -24.23393402
      1.38983051	    -13.46265738	      5.89568561	    102.21613838	      0.17802225	      0.71988044	      0.77219550	      0.55226238	    -16.89657006	     -5.47072796	     32.28758934	      0.56352474	     38.42141536	      3.80623590	      0.00000000	    -11.62014666	     12.10400951	      1.06276859	      4.54330745	      0.07929567	     23.11959250	     11.29821891	      0.00000000	     -0.39457341	     -2.57897353	      1.67119160	     -0.73276228	     -3.43003479	      1.77564108	     -0.64824466	     -6.27051623	      1.77564108	     -0.45095795	     -6.27051623	      1.46229265	     -0.36640087	     -5.25904281	      1.35784318	     -0.22545925	     -3.99482999	      1.25339370	     -2.81839842	    -29.17386431	      9.29466633	      0.00000000	      0.00000000	      7.48727586	     11.74490386	    -25.37773203	    -48.24266465	    -31.32619723	   -134.93718034	    102.63716511	     59.32938888	     -3.60409006	      5.61734667	    145.91287373	    -41.69977934	    203.90740700	      0.08155348	      0.81543398	    -69.84086774	    -24.29552492
      1.40677966	    -13.93125514	      5.70892678	    101.72857903	      0.17874097	      0.71866732	      0.76997405	      1.41572649	    -17.72578706	     -5.16552220	     33.74531658	      0.58896688	     38.80752029	      4.55979028	      0.00000000	    -11.86652115	     12.67622070	      1.33494763	      4.18216154	      0.07299249	     22.77449951	     10.75150191	      0.00000000	     -0.36919487	     -2.67292475	      2.48669335	     -0.68563179	     -3.55498992	      2.64211168	     -0.60655025	     -6.49894925	      2.64211168	     -0.42195282	     -6.49894925	      2.17585668	     -0.34283436	     -5.45062816	      2.02043835	     -0.21095795	     -4.14036044	      1.86502001	     -2.63712203	    -30.23665939	     13.83024241	      0.00000000	      0.00000000	      6.99202651	     12.37760090	    -29.06030733	    -51.00938667	    -27.00957754	   -139.18470067	    105.50050940	     57.86769660	     -1.34951922	      3.70742587	    142.34236689	    -36.87504456	    199.13958976	      0.07628849	      0.77631159	    -69.85288463	    -24.34678811
      1.42372881	    -14.43388866	      5.47019359	    101.14493925	      0.17931983	      0.71720832	      0.76840633	      2.48383192	    -18.67069446	     -4.80148172	     35.28831656	      0.61589731	     39.24747581	      5.53736083	      0.00000000	    -11.94905439	     13.34528391	      1.52261712	      3.89943770	      0.06805803	     22.54446389	     10.21468536	      0.00000000	     -0.34253738	     -2.75963506	      3.27473774	     -0.63612617	     -3.67031463	      3.47940884	     -0.56275466	     -6.70977669	      3.47940884	     -0.39148597	     -6.70977669	      2.86539552	     -0.31808021	     -5.62744781	      2.66072441	     -0.19572586	     -4.27467471	      2.45605330	     -2.44671025	    -31.21754373	     18.21310886	      0.00000000	      0.00000000	      6.45795202	     12.70233390	    -32.36758358	    -53.03223484	    -23.06661507	   -142.45983402	    108.20869050	     57.10914787	      0.31196007	      0.68249433	    139.18714468	    -32.29388668	    195.51748372	      0.07156579	      0.73507977	    -69.86404111	    -24.38763220
